This is a stereoscopic 3D rip of the IMAX documentary Hubble 3D, for new 3D TVs or computers with Nvidia 3D Vision. Tested with Stereoscopic Player. Enjoy!

Title: IMAX: Hubble 3D (2010)
Rated: G
Runtime: 45 min
Genre: Documentary

Description:
Through the power of IMAX® 3D, Hubble 3D will enable movie-goers to journey through distant galaxies to explore the grandeur and mysteries of our celestial surroundings, and accompany space-walking astronauts as they attempt the most difficult and important tasks in NASA’s history. The film will offer an inspiring and unique look into the Hubble Space Telescope’s legacy and highlight its profound impact on the way we view the universe and ourselves. Narrated by Leonardo DiCaprio, Hubble 3D reunites the Space Station 3D filmmaking team, led by Producer/Director Toni Myers. James Neihouse, Director of Photography, also doubles as the Astronaut crew trainer. Judy Carroll is Associate Producer, and Graeme Ferguson, Co-founder of IMAX and pioneer Producer of many IMAX space films, is Executive Producer. Hubble 3D is an IMAX and Warner Bros. Pictures production, in cooperation with National Aeronautics and Space Administration (NASA).
-From imax.com: http://www.imax.com/movies/m/hubble-3d/

IMDB Page: http://www.imdb.com/title/tt1433813/

General
Unique ID : 212283723276404273441790330718352967052 (0x9FB45BA1B85D8186B2E5CFA49266058C)
Complete name : [filepath]\IMAX Hubble 3D.mkv
Format : Matroska
File size : 4.02 GiB
Duration : 43mn 59s
Overall bit rate : 13.1 Mbps
Movie name : Hubble_3D.Title1000.Bluray3DRip
Encoded date : UTC 2011-03-30 20:36:07
Writing application : mkvmerge v4.6.0 ('Still Crazy After All These Years') built on Mar 10 2011 02:50:32
Writing library : libebml v1.2.0 + libmatroska v1.1.0

Video
ID : 1
Format : AVC
Format/Info : Advanced Video Codec
Format profile : High@L4.1
Format settings, CABAC : Yes
Format settings, ReFrames : 2 frames
Format settings, GOP : M=3, N=24
Muxing mode : Header stripping
Codec ID : V_MPEG4/ISO/AVC
Duration : 43mn 59s
Bit rate mode : Variable
Bit rate : 11.3 Mbps
Maximum bit rate : 30.0 Mbps
Width : 1 920 pixels
Height : 1 080 pixels
Display aspect ratio : 16:9
Frame rate : 23.976 fps
Color space : YUV
Chroma subsampling : 4:2:0
Bit depth : 8 bits
Scan type : Progressive
Bits/(Pixel*Frame) : 0.228
Stream size : 3.48 GiB (86%)
Writing library : x264 core
Color primaries : BT.709-5, BT.1361, IEC 61966-2-4, SMPTE RP177
Transfer characteristics : BT.709-5, BT.1361
Matrix coefficients : BT.709-5, BT.1361, IEC 61966-2-4 709, SMPTE RP177

Audio
ID : 2
Format : DTS
Format/Info : Digital Theater Systems
Codec ID : A_DTS
Duration : 43mn 59s
Bit rate mode : Constant
Bit rate : 1 510 Kbps
Channel(s) : 6 channels
Channel positions : Front: L C R, Side: L R, LFE
Sampling rate : 48.0 KHz
Bit depth : 24 bits
Compression mode : Lossy
Stream size : 475 MiB (12%)
Language : English

